<svg width="24" height="24" viewBox="0 0 24 24" fill="none" xmlns="http://www.w3.org/2000/svg">
<path d="M1.77334 16.2311C2.26503 16.7215 2.93058 16.9977 3.625 16.9996H9.7285C10.0165 16.9996 10.25 16.7661 10.25 16.4781C10.25 16.19 10.0165 15.9566 9.7285 15.9566H3.625C3.41791 15.9584 3.21251 15.9192 3.02065 15.8412C2.8288 15.7633 2.65428 15.6481 2.5072 15.5023C2.36011 15.3565 2.24336 15.183 2.16368 14.9918C2.08401 14.8007 2.04299 14.5956 2.043 14.3886V8.08855C2.04019 7.87969 2.07915 7.67238 2.15757 7.47878C2.23599 7.28519 2.3523 7.10921 2.49967 6.96119C2.64704 6.81317 2.8225 6.69608 3.01575 6.61681C3.209 6.53753 3.41613 6.49766 3.625 6.49955H4.325C4.4529 6.4847 4.57089 6.42338 4.65653 6.32723C4.74216 6.23107 4.78948 6.10681 4.78948 5.97805C4.78948 5.84929 4.74216 5.72502 4.65653 5.62887C4.57089 5.53272 4.4529 5.47139 4.325 5.45655H3.625C2.92938 5.45839 2.26277 5.73555 1.77089 6.22743C1.279 6.71932 1.00185 7.38592 1 8.08155V14.3815C1.00369 15.076 1.28166 15.7408 1.77334 16.2311Z" fill="#FCFCFC"/>
<path d="M13.4758 7.47829C13.5541 7.66973 13.5939 7.87472 13.593 8.08155V11.4711C13.593 11.763 13.8296 11.9996 14.1215 11.9996C14.4134 11.9996 14.65 11.763 14.65 11.4711V8.05355C14.6463 7.35914 14.3683 6.69432 13.8767 6.20395C13.385 5.71358 12.7194 5.43738 12.025 5.43555H11.325C11.2545 5.43645 11.185 5.45134 11.1203 5.47936C11.0556 5.50738 10.9972 5.54797 10.9483 5.59877C10.8995 5.64957 10.8612 5.70956 10.8358 5.77527C10.8103 5.84099 10.7981 5.9111 10.8 5.98155C10.8018 6.11957 10.858 6.25131 10.9562 6.34826C11.0545 6.44521 11.187 6.49956 11.325 6.49955H12.025C12.2318 6.50046 12.4365 6.54211 12.6272 6.62211C12.8179 6.70211 12.991 6.8189 13.1367 6.9658C13.2823 7.1127 13.3975 7.28684 13.4758 7.47829Z" fill="#FCFCFC"/>
<path fill-rule="evenodd" clip-rule="evenodd" d="M3.62446 17.1999C2.87728 17.1979 2.16115 16.9007 1.6321 16.3731C1.10306 15.8454 0.803965 15.1301 0.799993 14.3829L0.799988 14.3819L0.799991 8.08186C0.801979 7.33337 1.10019 6.61558 1.62946 6.08632C2.15872 5.55706 2.87598 5.25885 3.62446 5.25686L4.33656 5.25686L4.34805 5.25819C4.52467 5.27869 4.6876 5.36338 4.80587 5.49616C4.92413 5.62894 4.98947 5.80055 4.98947 5.97836C4.98947 6.15617 4.92413 6.32778 4.80587 6.46056C4.6876 6.59334 4.52467 6.67803 4.34805 6.69852L4.33656 6.69986H3.62319C3.44096 6.69821 3.26024 6.73299 3.09165 6.80215C2.92305 6.87131 2.76997 6.97347 2.64139 7.10261C2.51282 7.23175 2.41135 7.38528 2.34293 7.55418C2.27451 7.72308 2.24052 7.90395 2.24297 8.08617L2.24301 8.08886L2.24299 14.3889C2.24298 14.5695 2.27877 14.7484 2.34828 14.9152C2.41779 15.082 2.51965 15.2333 2.64798 15.3605C2.7763 15.4877 2.92856 15.5882 3.09594 15.6563C3.26333 15.7243 3.44253 15.7585 3.62321 15.7569L3.62499 15.7569L9.72849 15.7569C10.127 15.7569 10.45 16.0799 10.45 16.4784C10.45 16.8768 10.127 17.1999 9.72849 17.1999H3.62446ZM13.393 8.08097C13.3938 7.9004 13.359 7.72144 13.2907 7.55431C13.2223 7.38718 13.1217 7.23515 12.9946 7.1069C12.8675 6.97865 12.7163 6.8767 12.5498 6.80686C12.3835 6.73707 12.205 6.70071 12.0245 6.69986H11.325C11.325 6.69986 11.325 6.69986 11.325 6.69986C11.1344 6.69987 10.9514 6.62481 10.8157 6.49094C10.6804 6.35736 10.6029 6.17596 10.6 5.98583C10.5977 5.88934 10.6144 5.79332 10.6493 5.70332C10.6843 5.6129 10.737 5.53035 10.8042 5.46046C10.8714 5.39056 10.9518 5.33472 11.0408 5.29616C11.1297 5.25761 11.2255 5.23711 11.3224 5.23587L11.325 5.23584L12.025 5.23586C12.7722 5.23783 13.4888 5.53501 14.0179 6.06265C14.5469 6.59028 14.846 7.30562 14.85 8.05279L14.85 8.05386L14.85 11.4714C14.85 11.8737 14.5238 12.1999 14.1215 12.1999C13.7192 12.1999 13.393 11.8737 13.393 11.4714V8.08097ZM10.8 5.98186C10.8018 6.11988 10.858 6.25162 10.9562 6.34857C11.0545 6.44552 11.187 6.49987 11.325 6.49986H12.025C12.2318 6.50077 12.4365 6.54242 12.6272 6.62242C12.8179 6.70242 12.991 6.81921 13.1366 6.96611C13.2822 7.11301 13.3975 7.28715 13.4758 7.4786C13.5541 7.67004 13.5939 7.87502 13.593 8.08186V11.4714C13.593 11.7633 13.8296 11.9999 14.1215 11.9999C14.4134 11.9999 14.65 11.7633 14.65 11.4714V8.05386C14.6463 7.35945 14.3683 6.69463 13.8766 6.20426C13.385 5.71389 12.7194 5.43769 12.025 5.43586H11.325C11.2545 5.43676 11.1849 5.45165 11.1203 5.47967C11.0556 5.50769 10.9972 5.54828 10.9483 5.59908C10.8995 5.64988 10.8612 5.70987 10.8358 5.77558C10.8103 5.84129 10.7981 5.91141 10.8 5.98186ZM3.62499 16.9999C2.93057 16.998 2.26502 16.7218 1.77333 16.2315C1.28165 15.7411 1.00368 15.0763 0.999991 14.3819V8.08186C1.00184 7.38623 1.27899 6.71963 1.77088 6.22774C2.26276 5.73586 2.92937 5.4587 3.62499 5.45686H4.32499C4.45289 5.4717 4.57088 5.53303 4.65652 5.62918C4.74215 5.72533 4.78947 5.8496 4.78947 5.97836C4.78947 6.10712 4.74215 6.23138 4.65652 6.32754C4.57088 6.42369 4.45289 6.48501 4.32499 6.49986H3.62499C3.41612 6.49797 3.20899 6.53784 3.01574 6.61711C2.82249 6.69639 2.64703 6.81348 2.49966 6.9615C2.35229 7.10952 2.23598 7.2855 2.15756 7.47909C2.07914 7.67269 2.04018 7.88 2.04299 8.08886V14.3889C2.04298 14.596 2.084 14.801 2.16367 14.9922C2.24335 15.1833 2.3601 15.3568 2.50719 15.5026C2.65427 15.6484 2.82879 15.7636 3.02064 15.8415C3.2125 15.9195 3.4179 15.9587 3.62499 15.9569H9.72849C10.0165 15.9569 10.25 16.1903 10.25 16.4784C10.25 16.7664 10.0165 16.9999 9.72849 16.9999H3.62499Z" fill="#FCFCFC"/>
<path d="M6.42499 6.49971C6.28576 6.49971 6.15222 6.4444 6.05376 6.34594C5.95531 6.24748 5.89999 6.11395 5.89999 5.97471C5.89999 5.83547 5.95531 5.70193 6.05376 5.60348C6.15222 5.50502 6.28576 5.44971 6.42499 5.44971H9.22499C9.36423 5.44971 9.49777 5.50502 9.59623 5.60348C9.69468 5.70193 9.74999 5.83547 9.74999 5.97471C9.74999 6.11395 9.69468 6.24748 9.59623 6.34594C9.49777 6.4444 9.36423 6.49971 9.22499 6.49971H6.42499Z" fill="#FCFCFC"/>
<path fill-rule="evenodd" clip-rule="evenodd" d="M6.42501 6.7C6.23273 6.7 6.04832 6.62362 5.91236 6.48765C5.7764 6.35169 5.70001 6.16728 5.70001 5.975C5.70001 5.78272 5.7764 5.59831 5.91236 5.46235C6.04832 5.32638 6.23273 5.25 6.42501 5.25H9.22501C9.41729 5.25 9.6017 5.32638 9.73767 5.46235C9.87363 5.59831 9.95001 5.78272 9.95001 5.975C9.95001 6.16728 9.87363 6.35169 9.73767 6.48765C9.6017 6.62362 9.41729 6.7 9.22501 6.7H6.42501ZM6.05378 6.34623C6.15224 6.44469 6.28577 6.5 6.42501 6.5H9.22501C9.36425 6.5 9.49779 6.44469 9.59624 6.34623C9.6947 6.24777 9.75001 6.11424 9.75001 5.975C9.75001 5.83576 9.6947 5.70223 9.59624 5.60377C9.49779 5.50531 9.36425 5.45 9.22501 5.45H6.42501C6.28577 5.45 6.15224 5.50531 6.05378 5.60377C5.95532 5.70223 5.90001 5.83576 5.90001 5.975C5.90001 6.11424 5.95532 6.24777 6.05378 6.34623Z" fill="#FCFCFC"/>
<path d="M5.36095 7.557C4.94324 7.557 4.54263 7.39106 4.24726 7.09569C3.95189 6.80032 3.78595 6.39972 3.78595 5.982V4.582C3.7841 4.37491 3.82329 4.16951 3.90127 3.97765C3.97924 3.78579 4.09444 3.61128 4.24023 3.4642C4.38602 3.31711 4.5595 3.20036 4.75065 3.12068C4.94181 3.04101 5.14686 2.99999 5.35395 3C5.7699 3.00182 6.16839 3.16739 6.46316 3.46085C6.75794 3.75432 6.92528 4.15207 6.92895 4.568V5.968C6.93007 6.17433 6.89046 6.37886 6.81238 6.56985C6.7343 6.76084 6.61929 6.93454 6.47395 7.081C6.17871 7.3771 5.77906 7.5455 5.36095 7.55V7.557ZM5.36095 4.057C5.29233 4.05699 5.2244 4.07062 5.16109 4.09709C5.09778 4.12356 5.04037 4.16234 4.99217 4.21119C4.94398 4.26003 4.90597 4.31796 4.88035 4.38162C4.85474 4.44528 4.84202 4.51339 4.84295 4.582V5.982C4.84661 6.05294 4.86463 6.12239 4.89591 6.18616C4.9272 6.24993 4.9711 6.30669 5.02495 6.353C5.1137 6.44365 5.23415 6.49634 5.36095 6.5C5.50083 6.49816 5.63436 6.4413 5.73262 6.34173C5.83088 6.24216 5.88596 6.10789 5.88595 5.968V4.568C5.8823 4.4312 5.82538 4.30124 5.72732 4.20579C5.62926 4.11034 5.4978 4.05695 5.36095 4.057Z" fill="#FCFCFC"/>
<path fill-rule="evenodd" clip-rule="evenodd" d="M5.56094 7.75681H5.36094C4.89018 7.75681 4.4387 7.5698 4.10582 7.23692C3.77295 6.90404 3.58594 6.45256 3.58594 5.98181V4.58267C3.58398 4.34948 3.62817 4.1182 3.71597 3.90216C3.80389 3.68583 3.93379 3.48906 4.09817 3.32321C4.26255 3.15736 4.45816 3.02572 4.6737 2.93588C4.88924 2.84604 5.12044 2.7998 5.35395 2.7998L5.35394 2.9998C5.14684 2.9998 4.9418 3.04081 4.75064 3.12049C4.55948 3.20016 4.386 3.31691 4.24022 3.464C4.09443 3.61109 3.97922 3.7856 3.90125 3.97746C3.82328 4.16931 3.78409 4.37472 3.78594 4.58181V5.98181C3.78594 6.39952 3.95188 6.80013 4.24725 7.0955C4.50744 7.35569 4.84929 7.51544 5.21256 7.54981C5.26168 7.55445 5.31119 7.55681 5.36094 7.55681V7.54981C5.77905 7.54531 6.1787 7.3769 6.47394 7.08081C6.61928 6.93435 6.73429 6.76064 6.81237 6.56965C6.89044 6.37866 6.93006 6.17414 6.92894 5.96781V4.5678C6.92526 4.15187 6.75792 3.75412 6.46315 3.46066C6.16838 3.16719 5.76988 3.00163 5.35394 2.9998L5.35395 2.7998C5.82248 2.80186 6.27222 2.98836 6.60426 3.31892C6.9363 3.64949 7.12479 4.09752 7.12893 4.56604L7.12895 4.5678L7.12894 5.96726M5.56094 7.75681V7.73672V7.75681ZM5.04294 4.58181V5.97603C5.04572 6.01837 5.05676 6.05976 5.07546 6.09788C5.09483 6.13736 5.122 6.17249 5.15534 6.20116L5.16185 6.20676L5.16785 6.21289C5.21941 6.26555 5.28904 6.29657 5.36256 6.29974C5.4483 6.29751 5.52992 6.26218 5.59025 6.20105C5.65157 6.13891 5.68595 6.05512 5.68594 5.96782V4.57079C5.6831 4.48697 5.64795 4.40745 5.58781 4.34891C5.5271 4.28982 5.44573 4.25677 5.36101 4.2568L5.36094 4.05681C5.49779 4.05676 5.62924 4.11014 5.72731 4.20559C5.82537 4.30104 5.88229 4.43101 5.88594 4.5678V5.96781C5.88595 6.1077 5.83086 6.24196 5.7326 6.34153C5.63434 6.4411 5.50082 6.49796 5.36094 6.49981C5.23413 6.49615 5.11369 6.44345 5.02494 6.35281C4.97108 6.30649 4.92719 6.24974 4.8959 6.18597C4.86462 6.1222 4.8466 6.05274 4.84294 5.98181V4.58181C4.84201 4.51319 4.85473 4.44508 4.88034 4.38142C4.90596 4.31777 4.94397 4.25983 4.99216 4.21099C5.04035 4.16215 5.09777 4.12336 5.16108 4.09689C5.22439 4.07043 5.29232 4.0568 5.36094 4.05681L5.36101 4.2568C5.31889 4.2568 5.27709 4.26517 5.23823 4.28142C5.19936 4.29766 5.16411 4.32147 5.13453 4.35146C5.10494 4.38145 5.08161 4.41701 5.06588 4.45609C5.05016 4.49517 5.04235 4.53698 5.04292 4.5791L5.04294 4.58181Z" fill="#FCFCFC"/>
<path d="M10.261 7.543C10.0541 7.54398 9.84905 7.50361 9.65793 7.42428C9.4668 7.34494 9.29345 7.22824 9.14804 7.081C8.85258 6.78591 8.6864 6.38558 8.68604 5.968V4.568C8.68604 4.15214 8.85123 3.75331 9.14529 3.45926C9.43935 3.1652 9.83818 3 10.254 3C10.67 3.00182 11.0685 3.16739 11.3632 3.46085C11.658 3.75432 11.8254 4.15207 11.829 4.568V5.968C11.83 6.17483 11.7901 6.37982 11.7118 6.57126C11.6335 6.7627 11.5183 6.93685 11.3727 7.08375C11.2271 7.23065 11.054 7.34744 10.8632 7.42744C10.6725 7.50744 10.4679 7.54908 10.261 7.55V7.543ZM10.261 4.043C10.123 4.04484 9.99127 4.10096 9.89432 4.19922C9.79737 4.29748 9.74302 4.42997 9.74304 4.568V5.968C9.74304 6.10724 9.79835 6.24078 9.8968 6.33923C9.99526 6.43769 10.1288 6.493 10.268 6.493C10.337 6.493 10.4052 6.47942 10.4689 6.45304C10.5326 6.42665 10.5905 6.38798 10.6393 6.33923C10.688 6.29048 10.7267 6.23261 10.7531 6.16891C10.7795 6.10521 10.793 6.03694 10.793 5.968V4.568C10.793 4.49846 10.7792 4.42962 10.7524 4.36546C10.7256 4.3013 10.6863 4.24312 10.6368 4.19427C10.5873 4.14543 10.5286 4.1069 10.4641 4.08094C10.3996 4.05497 10.3306 4.04207 10.261 4.043Z" fill="#FCFCFC"/>
<path fill-rule="evenodd" clip-rule="evenodd" d="M10.2611 7.5498C10.3084 7.54959 10.3556 7.54725 10.4025 7.5428C10.4221 7.54095 10.4416 7.53874 10.461 7.53616C10.599 7.51786 10.7343 7.48131 10.8632 7.42724C11.054 7.34724 11.2271 7.23045 11.3727 7.08355C11.5183 6.93665 11.6335 6.76251 11.7118 6.57107C11.7901 6.37962 11.8299 6.17464 11.829 5.9678V4.5678C11.8253 4.15187 11.658 3.75412 11.3632 3.46066C11.0685 3.16719 10.67 3.00163 10.254 2.9998L10.2549 2.7998C10.7234 2.80186 11.1723 2.98836 11.5043 3.31892C11.8364 3.64948 12.0249 4.09752 12.029 4.56604L12.029 4.5678L12.029 5.96741M10.061 7.73221C9.8964 7.71402 9.73484 7.67256 9.58124 7.6088C9.36573 7.51934 9.17023 7.38778 9.00621 7.22183C8.67354 6.88932 8.48644 6.43835 8.48602 5.96798L8.48602 4.5678C8.48602 4.0989 8.67229 3.6492 9.00386 3.31764C9.33542 2.98607 9.786 2.7998 10.2549 2.7998L10.254 2.9998C9.83816 2.9998 9.43934 3.165 9.14528 3.45906C8.85122 3.75312 8.68602 4.15194 8.68602 4.5678V5.9678C8.68639 6.38538 8.85257 6.78572 9.14802 7.0808C9.29344 7.22804 9.46679 7.34475 9.65792 7.42408C9.84452 7.50154 10.0444 7.54185 10.2463 7.5428C10.2512 7.54283 10.2561 7.54283 10.261 7.5428M10.2611 7.5498L10.261 7.5428L10.2611 7.5498ZM9.94302 4.5678V5.9678C9.94302 6.054 9.97726 6.13666 10.0382 6.19761C10.0992 6.25856 10.1818 6.2928 10.268 6.2928C10.3107 6.2928 10.353 6.2844 10.3924 6.26806C10.4318 6.25173 10.4677 6.22779 10.4978 6.19761C10.528 6.16743 10.552 6.13161 10.5683 6.09218C10.5846 6.05274 10.593 6.01048 10.593 5.9678V4.5678C10.593 4.52476 10.5845 4.48212 10.5679 4.4424C10.5513 4.40269 10.5269 4.36667 10.4963 4.33643C10.4657 4.30619 10.4293 4.28234 10.3894 4.26627C10.3495 4.25019 10.3067 4.24221 10.2637 4.24279C10.1782 4.24392 10.0967 4.27867 10.0367 4.33949C9.97666 4.40032 9.94302 4.48235 9.94302 4.5678ZM10.793 4.5678C10.793 4.49827 10.7792 4.42942 10.7524 4.36526C10.7256 4.30111 10.6863 4.24292 10.6368 4.19408C10.5873 4.14523 10.5286 4.10671 10.4641 4.08074C10.3996 4.05477 10.3306 4.04188 10.261 4.0428C10.123 4.04464 9.99126 4.10077 9.89431 4.19903C9.79736 4.29728 9.74301 4.42977 9.74302 4.5678V5.9678C9.74302 6.10704 9.79834 6.24058 9.89679 6.33903C9.99525 6.43749 10.1288 6.4928 10.268 6.4928C10.337 6.4928 10.4052 6.47922 10.4689 6.45284C10.5326 6.42646 10.5905 6.38779 10.6393 6.33903C10.688 6.29028 10.7267 6.23241 10.7531 6.16871C10.7794 6.10502 10.793 6.03675 10.793 5.9678V4.5678Z" fill="#FCFCFC"/>
<path d="M1.525 9.99971C1.38576 9.99971 1.25223 9.94439 1.15377 9.84594C1.05531 9.74748 1 9.61395 1 9.47471C1 9.33547 1.05531 9.20193 1.15377 9.10348C1.25223 9.00502 1.38576 8.94971 1.525 8.94971H14.125C14.2642 8.94971 14.3978 9.00502 14.4962 9.10348C14.5947 9.20193 14.65 9.33547 14.65 9.47471C14.6519 9.54418 14.6397 9.61331 14.614 9.67788C14.5883 9.74245 14.5497 9.8011 14.5005 9.85024C14.4514 9.89938 14.3927 9.93798 14.3282 9.96368C14.2636 9.98938 14.1945 10.0016 14.125 9.99971H1.525Z" fill="#FCFCFC"/>
<path fill-rule="evenodd" clip-rule="evenodd" d="M1.52499 10.2C1.33271 10.2 1.1483 10.1236 1.01234 9.98765C0.876371 9.85169 0.799988 9.66728 0.799988 9.475C0.799988 9.28272 0.876371 9.09831 1.01234 8.96235C1.1483 8.82638 1.33271 8.75 1.52499 8.75H14.125C14.3173 8.75 14.5017 8.82638 14.6376 8.96235C14.773 9.09766 14.8493 9.28095 14.85 9.47223C14.8523 9.56795 14.8352 9.66316 14.7998 9.75213C14.764 9.84197 14.7103 9.92358 14.6419 9.99195C14.5736 10.0603 14.492 10.114 14.4021 10.1498C14.3132 10.1852 14.2181 10.2023 14.1224 10.2H1.52499ZM14.65 9.475C14.65 9.33576 14.5947 9.20223 14.4962 9.10377C14.3978 9.00531 14.2642 8.95 14.125 8.95H1.52499C1.38575 8.95 1.25221 9.00531 1.15376 9.10377C1.0553 9.20223 0.999988 9.33576 0.999988 9.475C0.999988 9.61424 1.0553 9.74777 1.15376 9.84623C1.25221 9.94469 1.38575 10 1.52499 10H14.125C14.1945 10.0019 14.2636 9.98967 14.3282 9.96397C14.3927 9.93827 14.4514 9.89967 14.5005 9.85053C14.5497 9.80139 14.5883 9.74274 14.614 9.67817C14.6397 9.6136 14.6519 9.54447 14.65 9.475Z" fill="#FCFCFC"/>
<path fill-rule="evenodd" clip-rule="evenodd" d="M16.75 9.2002C17.1918 9.2002 17.55 9.55837 17.55 10.0002V14.2002H21.75C22.1918 14.2002 22.55 14.5584 22.55 15.0002C22.55 15.442 22.1918 15.8002 21.75 15.8002H17.55V20.0002C17.55 20.442 17.1918 20.8002 16.75 20.8002C16.3081 20.8002 15.95 20.442 15.95 20.0002V15.8002H11.75C11.3081 15.8002 10.95 15.442 10.95 15.0002C10.95 14.5584 11.3081 14.2002 11.75 14.2002H15.95V10.0002C15.95 9.55837 16.3081 9.2002 16.75 9.2002Z" fill="#FCFCFC"/>
</svg>
