<svg width="24" height="24" viewBox="0 0 24 24" fill="none" xmlns="http://www.w3.org/2000/svg">
<path d="M1.77334 16.2316C2.26503 16.722 2.93058 16.9982 3.625 17H9.7285C10.0165 17 10.25 16.7666 10.25 16.4785C10.25 16.1905 10.0165 15.957 9.7285 15.957H3.625C3.41791 15.9589 3.21251 15.9197 3.02065 15.8417C2.8288 15.7638 2.65428 15.6485 2.5072 15.5028C2.36011 15.357 2.24336 15.1835 2.16368 14.9923C2.08401 14.8012 2.04299 14.5961 2.043 14.389V8.08904C2.04019 7.88018 2.07915 7.67287 2.15757 7.47927C2.23599 7.28568 2.3523 7.1097 2.49967 6.96168C2.64704 6.81366 2.8225 6.69657 3.01575 6.61729C3.209 6.53802 3.41613 6.49815 3.625 6.50004H4.325C4.4529 6.48519 4.57089 6.42387 4.65653 6.32771C4.74216 6.23156 4.78948 6.10729 4.78948 5.97854C4.78948 5.84978 4.74216 5.72551 4.65653 5.62936C4.57089 5.53321 4.4529 5.47188 4.325 5.45704H3.625C2.92938 5.45888 2.26277 5.73604 1.77089 6.22792C1.279 6.7198 1.00185 7.38641 1 8.08204V14.382C1.00369 15.0764 1.28166 15.7413 1.77334 16.2316Z" fill="#FAFAFA"/>
<path d="M13.4758 7.47877C13.5541 7.67021 13.5939 7.8752 13.593 8.08204V11.4716C13.593 11.7634 13.8296 12.0001 14.1215 12.0001C14.4134 12.0001 14.65 11.7634 14.65 11.4716V8.05404C14.6463 7.35963 14.3683 6.69481 13.8767 6.20444C13.385 5.71406 12.7194 5.43787 12.025 5.43604H11.325C11.2545 5.43694 11.185 5.45183 11.1203 5.47985C11.0556 5.50787 10.9972 5.54846 10.9483 5.59926C10.8995 5.65006 10.8612 5.71005 10.8358 5.77576C10.8103 5.84147 10.7981 5.91159 10.8 5.98204C10.8018 6.12006 10.858 6.2518 10.9562 6.34875C11.0545 6.4457 11.187 6.50005 11.325 6.50004H12.025C12.2318 6.50095 12.4365 6.5426 12.6272 6.6226C12.8179 6.7026 12.991 6.81938 13.1367 6.96629C13.2823 7.11319 13.3975 7.28733 13.4758 7.47877Z" fill="#FAFAFA"/>
<path d="M6.4249 6.49995C6.28566 6.49995 6.15213 6.44464 6.05367 6.34618C5.95521 6.24773 5.8999 6.11419 5.8999 5.97495C5.8999 5.83571 5.95521 5.70218 6.05367 5.60372C6.15213 5.50526 6.28566 5.44995 6.4249 5.44995H9.2249C9.36414 5.44995 9.49768 5.50526 9.59613 5.60372C9.69459 5.70218 9.7499 5.83571 9.7499 5.97495C9.7499 6.11419 9.69459 6.24773 9.59613 6.34618C9.49768 6.44464 9.36414 6.49995 9.2249 6.49995H6.4249Z" fill="#FAFAFA"/>
<path d="M5.36071 7.557C4.94299 7.557 4.54238 7.39106 4.24701 7.09569C3.95164 6.80032 3.78571 6.39972 3.78571 5.982V4.582C3.78386 4.37491 3.82305 4.16951 3.90102 3.97765C3.97899 3.78579 4.0942 3.61128 4.23998 3.4642C4.38577 3.31711 4.55925 3.20036 4.75041 3.12068C4.94157 3.04101 5.14661 2.99999 5.35371 3C5.76965 3.00182 6.16814 3.16739 6.46292 3.46085C6.75769 3.75432 6.92503 4.15207 6.92871 4.568V5.968C6.92983 6.17433 6.89021 6.37886 6.81213 6.56985C6.73406 6.76084 6.61905 6.93454 6.47371 7.081C6.17847 7.3771 5.77882 7.5455 5.36071 7.55V7.557ZM5.36071 4.057C5.29209 4.05699 5.22415 4.07062 5.16085 4.09709C5.09754 4.12356 5.04012 4.16234 4.99193 4.21119C4.94374 4.26003 4.90573 4.31796 4.88011 4.38162C4.85449 4.44528 4.84178 4.51339 4.84271 4.582V5.982C4.84637 6.05294 4.86439 6.12239 4.89567 6.18616C4.92695 6.24993 4.97085 6.30669 5.02471 6.353C5.11346 6.44365 5.2339 6.49634 5.36071 6.5C5.50059 6.49816 5.63411 6.4413 5.73237 6.34173C5.83063 6.24216 5.88572 6.10789 5.88571 5.968V4.568C5.88206 4.4312 5.82514 4.30124 5.72708 4.20579C5.62901 4.11034 5.49755 4.05695 5.36071 4.057Z" fill="#FAFAFA"/>
<path d="M10.261 7.543C10.0541 7.54398 9.84905 7.50361 9.65793 7.42428C9.4668 7.34494 9.29345 7.22824 9.14804 7.081C8.85258 6.78591 8.6864 6.38558 8.68604 5.968V4.568C8.68604 4.15214 8.85123 3.75331 9.14529 3.45926C9.43935 3.1652 9.83818 3 10.254 3C10.67 3.00182 11.0685 3.16739 11.3632 3.46085C11.658 3.75432 11.8254 4.15207 11.829 4.568V5.968C11.83 6.17483 11.7901 6.37982 11.7118 6.57126C11.6335 6.7627 11.5183 6.93685 11.3727 7.08375C11.2271 7.23065 11.054 7.34744 10.8632 7.42744C10.6725 7.50744 10.4679 7.54908 10.261 7.55V7.543ZM10.261 4.043C10.123 4.04484 9.99127 4.10096 9.89432 4.19922C9.79737 4.29748 9.74302 4.42997 9.74304 4.568V5.968C9.74304 6.10724 9.79835 6.24078 9.8968 6.33923C9.99526 6.43769 10.1288 6.493 10.268 6.493C10.337 6.493 10.4052 6.47942 10.4689 6.45304C10.5326 6.42665 10.5905 6.38798 10.6393 6.33923C10.688 6.29048 10.7267 6.23261 10.7531 6.16891C10.7795 6.10521 10.793 6.03694 10.793 5.968V4.568C10.793 4.49846 10.7792 4.42962 10.7524 4.36546C10.7256 4.3013 10.6863 4.24312 10.6368 4.19427C10.5873 4.14543 10.5286 4.1069 10.4641 4.08094C10.3996 4.05497 10.3306 4.04207 10.261 4.043Z" fill="#FAFAFA"/>
<path d="M1.525 9.99995C1.38576 9.99995 1.25223 9.94464 1.15377 9.84618C1.05531 9.74773 1 9.61419 1 9.47495C1 9.33571 1.05531 9.20218 1.15377 9.10372C1.25223 9.00526 1.38576 8.94995 1.525 8.94995H14.125C14.2642 8.94995 14.3978 9.00526 14.4962 9.10372C14.5947 9.20218 14.65 9.33571 14.65 9.47495C14.6519 9.54442 14.6397 9.61355 14.614 9.67812C14.5883 9.74269 14.5497 9.80134 14.5005 9.85048C14.4514 9.89962 14.3927 9.93822 14.3282 9.96392C14.2636 9.98962 14.1945 10.0019 14.125 9.99995H1.525Z" fill="#FAFAFA"/>
<path fill-rule="evenodd" clip-rule="evenodd" d="M16.7502 9.19995C17.192 9.19995 17.5502 9.55812 17.5502 9.99995V14.2H21.7502C22.192 14.2 22.5502 14.5581 22.5502 15C22.5502 15.4418 22.192 15.8 21.7502 15.8H17.5502V20C17.5502 20.4418 17.192 20.8 16.7502 20.8C16.3084 20.8 15.9502 20.4418 15.9502 20V15.8H11.7502C11.3084 15.8 10.9502 15.4418 10.9502 15C10.9502 14.5581 11.3084 14.2 11.7502 14.2H15.9502V9.99995C15.9502 9.55812 16.3084 9.19995 16.7502 9.19995Z" fill="#FAFAFA"/>
</svg>
