<svg width="26" height="26" viewBox="0 0 26 26" fill="none" xmlns="http://www.w3.org/2000/svg">
<path d="M5.5 25.5C4.25997 25.4967 3.07148 25.0035 2.19347 24.1278C1.31546 23.2522 0.819092 22.065 0.8125 20.825V9.57498C0.815799 8.33279 1.31072 7.14242 2.18908 6.26406C3.06744 5.38569 4.25781 4.89078 5.5 4.88748H6.75C6.97839 4.91398 7.18908 5.02349 7.34201 5.19519C7.49493 5.36689 7.57943 5.5888 7.57943 5.81873C7.57943 6.04865 7.49493 6.27056 7.34201 6.44226C7.18908 6.61396 6.97839 6.72347 6.75 6.74998H5.5C5.12702 6.74661 4.75713 6.8178 4.41205 6.95937C4.06697 7.10093 3.75364 7.31001 3.49048 7.57434C3.22732 7.83867 3.01962 8.15291 2.87958 8.49861C2.73955 8.84432 2.66999 9.21452 2.675 9.58748V20.8375C2.67499 21.2073 2.74823 21.5734 2.8905 21.9148C3.03278 22.2561 3.24126 22.5659 3.50392 22.8263C3.76658 23.0866 4.0782 23.2923 4.42081 23.4316C4.76341 23.5708 5.1302 23.6408 5.5 23.6375H20.5C20.8688 23.6375 21.2339 23.5646 21.5744 23.4232C21.9149 23.2817 22.2242 23.0743 22.4843 22.813C22.7445 22.5516 22.9505 22.2415 23.0905 21.9003C23.2304 21.5592 23.3016 21.1937 23.3 20.825V9.57498C23.3016 9.20563 23.2305 8.83958 23.0907 8.49772C22.9509 8.15586 22.7451 7.84489 22.4851 7.58257C22.2251 7.32024 21.916 7.1117 21.5753 6.96884C21.2347 6.82598 20.8693 6.75161 20.5 6.74998H19.25C19.0035 6.75 18.7669 6.65294 18.5915 6.47982C18.416 6.3067 18.3158 6.07144 18.3125 5.82498C18.3092 5.69918 18.3309 5.57397 18.3764 5.45663C18.4218 5.33929 18.4902 5.23216 18.5774 5.14144C18.6646 5.05073 18.769 4.97825 18.8844 4.92822C18.9999 4.87818 19.1242 4.85159 19.25 4.84998H20.5C21.74 4.85326 22.9285 5.34646 23.8065 6.22212C24.6845 7.09779 25.1809 8.28496 25.1875 9.52498V20.775C25.1941 21.3942 25.0777 22.0085 24.8449 22.5823C24.6122 23.1561 24.2677 23.6779 23.8316 24.1175C23.3955 24.5571 22.8764 24.9057 22.3045 25.143C21.7326 25.3803 21.1192 25.5017 20.5 25.5H5.5Z" fill="#D06C96"/>
<path d="M10.5 6.75C10.2514 6.75 10.0129 6.65123 9.83709 6.47541C9.66127 6.2996 9.5625 6.06114 9.5625 5.8125C9.5625 5.56386 9.66127 5.3254 9.83709 5.14959C10.0129 4.97377 10.2514 4.875 10.5 4.875H15.5C15.7486 4.875 15.9871 4.97377 16.1629 5.14959C16.3387 5.3254 16.4375 5.56386 16.4375 5.8125C16.4375 6.06114 16.3387 6.2996 16.1629 6.47541C15.9871 6.65123 15.7486 6.75 15.5 6.75H10.5Z" fill="#D06C96"/>
<path d="M8.60003 8.6375C7.8541 8.6375 7.13873 8.34118 6.61129 7.81374C6.08384 7.28629 5.78753 6.57092 5.78753 5.825V3.325C5.78422 2.9552 5.85421 2.58841 5.99344 2.24581C6.13268 1.90321 6.3384 1.59158 6.59874 1.32892C6.85907 1.06626 7.16886 0.857777 7.51021 0.715503C7.85156 0.573229 8.21771 0.499985 8.58753 0.5C9.33029 0.503258 10.0419 0.798909 10.5683 1.32295C11.0946 1.847 11.3935 2.55726 11.4 3.3V5.8C11.402 6.16845 11.3313 6.53367 11.1919 6.87473C11.0524 7.21578 10.8471 7.52597 10.5875 7.7875C10.0603 8.31624 9.34666 8.61697 8.60003 8.625V8.6375ZM8.60003 2.3875C8.47749 2.38749 8.35618 2.41182 8.24313 2.45909C8.13008 2.50635 8.02755 2.57561 7.94149 2.66283C7.85543 2.75005 7.78756 2.85351 7.74182 2.96718C7.69607 3.08085 7.67337 3.20248 7.67503 3.325V5.825C7.68156 5.95167 7.71374 6.0757 7.7696 6.18957C7.82547 6.30345 7.90386 6.4048 8.00003 6.4875C8.15851 6.64937 8.37359 6.74347 8.60003 6.75C8.84981 6.74671 9.08825 6.64518 9.26371 6.46737C9.43918 6.28957 9.53755 6.04981 9.53753 5.8V3.3C9.53101 3.05572 9.42937 2.82363 9.25426 2.65319C9.07914 2.48275 8.84439 2.38741 8.60003 2.3875Z" fill="#D06C96"/>
<path d="M17.35 8.6125C16.9804 8.61424 16.6143 8.54217 16.273 8.4005C15.9317 8.25883 15.6221 8.05042 15.3625 7.7875C14.8349 7.26056 14.5381 6.54567 14.5375 5.8V3.3C14.5375 2.55739 14.8325 1.8452 15.3576 1.3201C15.8827 0.794999 16.5949 0.5 17.3375 0.5C18.0802 0.503258 18.7918 0.798909 19.3182 1.32295C19.8446 1.847 20.1434 2.55726 20.15 3.3V5.8C20.1516 6.16934 20.0805 6.53539 19.9407 6.87725C19.8009 7.21911 19.5951 7.53008 19.3351 7.79241C19.0751 8.05473 18.7659 8.26328 18.4253 8.40614C18.0847 8.54899 17.7193 8.62336 17.35 8.625V8.6125ZM17.35 2.3625C17.1035 2.36579 16.8683 2.46601 16.6951 2.64147C16.522 2.81693 16.425 3.05351 16.425 3.3V5.8C16.425 6.04864 16.5237 6.2871 16.6996 6.46291C16.8754 6.63873 17.1138 6.7375 17.3625 6.7375C17.4856 6.7375 17.6075 6.71325 17.7212 6.66614C17.835 6.61902 17.9383 6.54997 18.0254 6.46291C18.1124 6.37586 18.1815 6.27251 18.2286 6.15877C18.2757 6.04502 18.3 5.92311 18.3 5.8V3.3C18.3 3.17583 18.2753 3.05289 18.2274 2.93832C18.1795 2.82376 18.1094 2.71985 18.021 2.63263C17.9326 2.54541 17.8278 2.47662 17.7126 2.43024C17.5974 2.38387 17.4741 2.36084 17.35 2.3625Z" fill="#D06C96"/>
<path d="M1.75 13C1.50136 13 1.2629 12.9012 1.08709 12.7254C0.911272 12.5496 0.8125 12.3111 0.8125 12.0625C0.8125 11.8139 0.911272 11.5754 1.08709 11.3996C1.2629 11.2238 1.50136 11.125 1.75 11.125H24.25C24.4986 11.125 24.7371 11.2238 24.9129 11.3996C25.0887 11.5754 25.1875 11.8139 25.1875 12.0625C25.1909 12.1866 25.1691 12.31 25.1232 12.4253C25.0773 12.5406 25.0083 12.6453 24.9206 12.7331C24.8328 12.8208 24.7281 12.8898 24.6128 12.9357C24.4975 12.9816 24.3741 13.0034 24.25 13H1.75Z" fill="#D06C96"/>
</svg>
