<svg width="14" height="22" viewBox="0 0 14 22" fill="none" xmlns="http://www.w3.org/2000/svg">
<path d="M10 21.75H4C3.00544 21.75 2.05161 21.3549 1.34835 20.6517C0.645088 19.9484 0.25 18.9946 0.25 18V4C0.25 3.00544 0.645088 2.05161 1.34835 1.34835C2.05161 0.645088 3.00544 0.25 4 0.25H10C10.9946 0.25 11.9484 0.645088 12.6517 1.34835C13.3549 2.05161 13.75 3.00544 13.75 4V18C13.75 18.9946 13.3549 19.9484 12.6517 20.6517C11.9484 21.3549 10.9946 21.75 10 21.75ZM4 1.75C3.40326 1.75 2.83097 1.98705 2.40901 2.40901C1.98705 2.83097 1.75 3.40326 1.75 4V18C1.75 18.5967 1.98705 19.169 2.40901 19.591C2.83097 20.0129 3.40326 20.25 4 20.25H10C10.5967 20.25 11.169 20.0129 11.591 19.591C12.0129 19.169 12.25 18.5967 12.25 18V4C12.25 3.40326 12.0129 2.83097 11.591 2.40901C11.169 1.98705 10.5967 1.75 10 1.75H4Z" fill="#D06C96"/>
<path d="M7.00001 18.75C6.90032 18.7495 6.80173 18.7291 6.71001 18.69C6.62076 18.6521 6.53937 18.5978 6.47001 18.53C6.32956 18.3894 6.25067 18.1988 6.25067 18C6.25067 17.8013 6.32956 17.6106 6.47001 17.47C6.53937 17.4022 6.62076 17.348 6.71001 17.31C6.80156 17.2704 6.90026 17.2499 7.00001 17.2499C7.09977 17.2499 7.19846 17.2704 7.29001 17.31C7.37926 17.348 7.46065 17.4022 7.53001 17.47C7.67046 17.6106 7.74935 17.8013 7.74935 18C7.74935 18.1988 7.67046 18.3894 7.53001 18.53C7.46065 18.5978 7.37926 18.6521 7.29001 18.69C7.19829 18.7291 7.09971 18.7495 7.00001 18.75Z" fill="#D06C96"/>
</svg>
