<svg width="20" height="20" viewBox="0 0 20 20" fill="none" xmlns="http://www.w3.org/2000/svg">
<path fill-rule="evenodd" clip-rule="evenodd" d="M1.74958 3.4502L18.2496 3.4502C18.6914 3.4502 19.0496 3.80837 19.0496 4.2502C19.0496 4.69202 18.6914 5.0502 18.2496 5.0502L1.74958 5.0502C1.30776 5.0502 0.949585 4.69203 0.949585 4.2502C0.949585 3.80837 1.30776 3.4502 1.74958 3.4502Z" fill="#EA3131"/>
<path fill-rule="evenodd" clip-rule="evenodd" d="M7.74995 7.9502C8.19178 7.9502 8.54995 8.30837 8.54995 8.7502V14.7502C8.54995 15.192 8.19178 15.5502 7.74995 15.5502C7.30812 15.5502 6.94995 15.192 6.94995 14.7502V8.7502C6.94995 8.30837 7.30812 7.9502 7.74995 7.9502Z" fill="#EA3131"/>
<path fill-rule="evenodd" clip-rule="evenodd" d="M12.25 7.9502C12.6918 7.9502 13.05 8.30837 13.05 8.7502V14.7502C13.05 15.192 12.6918 15.5502 12.25 15.5502C11.8081 15.5502 11.45 15.192 11.45 14.7502V8.7502C11.45 8.30837 11.8081 7.9502 12.25 7.9502Z" fill="#EA3131"/>
<path fill-rule="evenodd" clip-rule="evenodd" d="M5.44995 1.2502C5.44995 0.808368 5.80812 0.450195 6.24995 0.450195H13.75C14.1918 0.450195 14.55 0.808368 14.55 1.2502C14.55 1.69202 14.1918 2.0502 13.75 2.0502H6.24995C5.80812 2.0502 5.44995 1.69202 5.44995 1.2502Z" fill="#EA3131"/>
<path fill-rule="evenodd" clip-rule="evenodd" d="M3.24956 3.5498C3.63616 3.5498 3.94956 3.86321 3.94956 4.2498V18.4998C3.94956 18.5131 3.95483 18.5258 3.96421 18.5352C3.97358 18.5445 3.9863 18.5498 3.99956 18.5498H15.9996C16.0128 18.5498 16.0255 18.5445 16.0349 18.5352C16.0443 18.5258 16.0496 18.5131 16.0496 18.4998V4.24981C16.0496 3.86321 16.363 3.54981 16.7496 3.54981C17.1362 3.54981 17.4496 3.86321 17.4496 4.24981V18.4998C17.4496 18.8844 17.2968 19.2532 17.0249 19.5251C16.7529 19.797 16.3841 19.9498 15.9996 19.9498H3.99956C3.615 19.9498 3.24618 19.797 2.97426 19.5251C2.70233 19.2532 2.54956 18.8844 2.54956 18.4998V4.2498C2.54956 3.86321 2.86296 3.5498 3.24956 3.5498Z" fill="#EA3131"/>
</svg>
