<svg xmlns="http://www.w3.org/2000/svg" width="13.035" height="13" viewBox="0 0 13.035 13">
  <path id="Path_145" data-name="Path 145" d="M4.176,8.729H2.747a.135.135,0,0,0-.135.135v1.429a.135.135,0,0,0,.135.135H4.176a.135.135,0,0,0,.135-.135V8.864A.138.138,0,0,0,4.176,8.729Zm.135-2.652a.135.135,0,0,0-.135-.135H2.747a.135.135,0,0,0-.135.135V7.505a.135.135,0,0,0,.135.135H4.176a.135.135,0,0,0,.135-.135ZM7.27,8.729H5.841a.135.135,0,0,0-.135.135v1.429a.135.135,0,0,0,.135.135H7.27a.135.135,0,0,0,.135-.135V8.864A.138.138,0,0,0,7.27,8.729ZM7.4,6.076a.135.135,0,0,0-.135-.135H5.841a.135.135,0,0,0-.135.135V7.505a.135.135,0,0,0,.135.135H7.27A.135.135,0,0,0,7.4,7.505ZM8.934,7.636h1.429A.135.135,0,0,0,10.5,7.5V6.071a.135.135,0,0,0-.135-.135H8.934a.135.135,0,0,0-.135.135V7.5A.135.135,0,0,0,8.934,7.636Zm0,2.793h1.429a.135.135,0,0,0,.135-.135V8.864a.135.135,0,0,0-.135-.135H8.934a.135.135,0,0,0-.135.135v1.429A.135.135,0,0,0,8.934,10.428Zm3.75-9.26H10.639v.7A1.143,1.143,0,0,1,9.5,3.008h-.07A1.143,1.143,0,0,1,8.282,1.865v-.7H4.617v.7A1.146,1.146,0,0,1,3.474,3.008H3.4A1.143,1.143,0,0,1,2.261,1.865v-.7H.351A.349.349,0,0,0,0,1.519v11.13A.349.349,0,0,0,.351,13H12.684a.349.349,0,0,0,.351-.351V1.519A.349.349,0,0,0,12.684,1.168Zm-.6,10.879H.953V4.277h11.13ZM3.474,2.507H3.4a.646.646,0,0,1-.642-.642V.642A.646.646,0,0,1,3.4,0h.07a.646.646,0,0,1,.642.642V1.865A.646.646,0,0,1,3.474,2.507Zm6.021,0h-.07a.646.646,0,0,1-.642-.642V.642A.646.646,0,0,1,9.425,0H9.5a.646.646,0,0,1,.642.642V1.865A.643.643,0,0,1,9.5,2.507Z" fill="#75838a"/>
</svg>
