<svg width="24" height="24" viewBox="0 0 24 24" fill="none" xmlns="http://www.w3.org/2000/svg">
<path fill-rule="evenodd" clip-rule="evenodd" d="M3.8002 5.3002V13.8188L7.15417 10.4648C7.2981 10.3209 7.46897 10.2067 7.65702 10.1289C7.84508 10.051 8.04663 10.0109 8.25018 10.0109C8.45373 10.0109 8.65529 10.051 8.84334 10.1289C9.0314 10.2067 9.20227 10.3209 9.3462 10.4648L13.5002 14.6188L15.4042 12.7148C15.5481 12.5709 15.719 12.4567 15.907 12.3789C16.0951 12.301 16.2966 12.2609 16.5002 12.2609C16.7037 12.2609 16.9053 12.301 17.0933 12.3789C17.2814 12.4567 17.4523 12.5709 17.5962 12.7148L20.2002 15.3189V5.3002H3.8002ZM8.25018 11.6316L3.8002 16.0816V18.7002H20.2002V17.5816L16.5002 13.8816L14.5962 15.7856C14.4523 15.9295 14.2814 16.0437 14.0933 16.1216C13.9053 16.1995 13.7037 16.2395 13.5002 16.2395C13.2966 16.2395 13.0951 16.1995 12.907 16.1216C12.719 16.0437 12.5481 15.9295 12.4042 15.7856L8.25018 11.6316ZM2.2002 5.2502V15.7502V18.7502C2.2002 19.6062 2.89415 20.3002 3.7502 20.3002H20.2502C21.1062 20.3002 21.8002 19.6062 21.8002 18.7502V5.2502C21.8002 4.39415 21.1062 3.7002 20.2502 3.7002H3.7502C2.89415 3.7002 2.2002 4.39415 2.2002 5.2502ZM15.7502 9.37524C15.7502 9.99656 15.2465 10.5002 14.6252 10.5002C14.0039 10.5002 13.5002 9.99656 13.5002 9.37524C13.5002 8.75392 14.0039 8.25024 14.6252 8.25024C15.2465 8.25024 15.7502 8.75392 15.7502 9.37524Z" fill="#D06C96"/>
</svg>
