<svg width="32" height="32" viewBox="0 0 32 32" fill="none" xmlns="http://www.w3.org/2000/svg">
<path fill-rule="evenodd" clip-rule="evenodd" d="M19.5858 4C19.9609 3.62493 20.4696 3.41422 21 3.41422C21.5304 3.41422 22.0391 3.62493 22.4142 4L21.7457 4.66854L22.4142 4L28 9.58579C28.3751 9.96086 28.5858 10.4696 28.5858 11C28.5858 11.5304 28.3751 12.0391 28 12.4142L12.7071 27.7071C12.5196 27.8946 12.2652 28 12 28H6C5.46957 28 4.96086 27.7893 4.58579 27.4142C4.21071 27.0391 4 26.5304 4 26V20.4142C4 20.1516 4.05173 19.8915 4.15224 19.6488C4.25275 19.4062 4.40007 19.1857 4.58579 19L19.5858 4ZM26.5858 11L21 5.41421L6 20.4142L5.29289 19.7071L6 20.4142L6 26H11.5858L26.5858 11Z" fill="black"/>
<path fill-rule="evenodd" clip-rule="evenodd" d="M16.2929 7.29289C16.6834 6.90237 17.3166 6.90237 17.7071 7.29289L24.7071 14.2929C25.0976 14.6834 25.0976 15.3166 24.7071 15.7071C24.3166 16.0976 23.6834 16.0976 23.2929 15.7071L16.2929 8.70711C15.9024 8.31658 15.9024 7.68342 16.2929 7.29289Z" fill="black"/>
</svg>
