<svg width="24" height="24" viewBox="0 0 24 24" fill="none" xmlns="http://www.w3.org/2000/svg">
<path fill-rule="evenodd" clip-rule="evenodd" d="M5.70088 2.17299C5.93518 2.07878 6.20778 2 6.47782 2C7.11485 2 7.75729 2.34663 8.26615 2.71368C8.80769 3.10429 9.34216 3.62399 9.78622 4.17053C10.2255 4.71115 10.6134 5.32361 10.8189 5.91072C11.0054 6.44363 11.14 7.26919 10.5435 7.86569C10.2077 8.20147 9.92811 8.60897 9.77542 9.0098C9.6228 9.41042 9.61704 9.74397 9.72061 10.0029C10.6008 12.2035 12.8558 13.5826 14.2311 14.0411C14.4685 14.1202 14.6239 14.1097 14.7398 14.0799C14.8721 14.0459 15.0117 13.9714 15.2004 13.8365C15.2418 13.807 15.3003 13.7627 15.3679 13.7115C15.5191 13.597 15.7162 13.4476 15.8719 13.3496C16.1466 13.1766 16.516 13 16.9778 13C17.5072 13 18.091 13.1697 18.6255 13.4025C19.1727 13.6407 19.7315 13.9728 20.2224 14.3584C20.7081 14.74 21.1632 15.2023 21.4646 15.7147C21.7644 16.2244 21.9622 16.8777 21.7371 17.553C21.4123 18.5275 20.4949 19.6153 19.2363 20.3512C17.949 21.104 16.2417 21.528 14.2982 21.0795C7.45766 19.5009 3.26239 13.7352 2.20203 9.49404C1.63093 7.20981 2.35216 5.33736 3.34646 4.05887C3.83971 3.42463 4.40556 2.92762 4.93005 2.58397C5.19237 2.41209 5.45399 2.27226 5.70088 2.17299ZM4.60946 5.04113C3.8539 6.01264 3.32528 7.39019 3.75425 9.10596C4.69403 12.8648 8.49846 18.0991 14.658 19.5205C16.1594 19.867 17.4521 19.541 18.4287 18.97C19.4339 18.3822 20.0441 17.5725 20.2192 17.047C20.2441 16.9723 20.2544 16.8131 20.0855 16.5259C19.9181 16.2414 19.6232 15.9225 19.2339 15.6166C18.8497 15.3147 18.4084 15.053 17.9868 14.8694C17.5524 14.6803 17.1987 14.6 16.9778 14.6C16.9397 14.6 16.8716 14.6109 16.7245 14.7035C16.6146 14.7727 16.5368 14.8327 16.4364 14.9102C16.3573 14.9711 16.2643 15.0429 16.1305 15.1385C15.8818 15.3161 15.5528 15.5229 15.1383 15.6295C14.7073 15.7403 14.2378 15.7298 13.7251 15.5589C12.1004 15.0174 9.35478 13.3965 8.23504 10.5971C7.93862 9.85603 8.03286 9.08958 8.28024 8.44021C8.52144 7.80705 8.92729 7.2278 9.37786 6.76891C9.38087 6.72936 9.37592 6.63141 9.30868 6.43928C9.18604 6.08889 8.91769 5.63885 8.54444 5.17947C8.176 4.72601 7.74173 4.30821 7.33014 4.01132C6.89052 3.69422 6.597 3.60193 6.48143 3.60003C6.48021 3.60001 6.47901 3.6 6.47782 3.6M6.48143 3.60003C6.48166 3.60004 6.48143 3.6 6.48143 3.60003C6.4815 3.60076 6.42347 3.60694 6.29776 3.65748C6.16576 3.71056 5.99771 3.79728 5.80693 3.92228C5.42522 4.17238 4.99113 4.55037 4.60946 5.04113M9.37393 6.79067C9.37372 6.79053 9.37419 6.78809 9.37598 6.78378C9.37504 6.78865 9.37414 6.7908 9.37393 6.79067Z" fill="#D06C96"/>
</svg>
