<svg width="16" height="16" viewBox="0 0 16 16" fill="none" xmlns="http://www.w3.org/2000/svg">
<path d="M8.89003 6.01001C8.89003 6.5623 9.33774 7.01001 9.89003 7.01001H14.74C15.2371 7.01001 15.64 7.41295 15.64 7.91001C15.64 8.40707 15.2371 8.81001 14.74 8.81001H9.89003C9.33774 8.81001 8.89003 9.25772 8.89003 9.81001V14.66C8.89003 15.1571 8.48708 15.56 7.99003 15.56C7.49297 15.56 7.09003 15.1571 7.09003 14.66V9.81001C7.09003 9.25772 6.64231 8.81001 6.09003 8.81001H1.24003C0.74297 8.81001 0.340027 8.40707 0.340027 7.91001C0.340027 7.41295 0.74297 7.01001 1.24003 7.01001H6.09003C6.64231 7.01001 7.09003 6.5623 7.09003 6.01001V1.16001C7.09003 0.662953 7.49297 0.26001 7.99003 0.26001C8.48708 0.26001 8.89003 0.662953 8.89003 1.16001V6.01001Z" fill="#D06C96"/>
</svg>
