<svg width="30" height="30" viewBox="0 0 30 30" fill="none" xmlns="http://www.w3.org/2000/svg">
<path fill-rule="evenodd" clip-rule="evenodd" d="M21.25 14.6875H8.75V12.8125H21.25V14.6875Z" fill="#FAFAFA"/>
<path fill-rule="evenodd" clip-rule="evenodd" d="M21.25 20.9375H8.75V19.0625H21.25V20.9375Z" fill="#FAFAFA"/>
<path fill-rule="evenodd" clip-rule="evenodd" d="M9.375 3.125V6.875H20.625V3.125H9.375ZM8.75 1.25C8.05964 1.25 7.5 1.80964 7.5 2.5V7.5C7.5 8.19036 8.05964 8.75 8.75 8.75H21.25C21.9404 8.75 22.5 8.19036 22.5 7.5V2.5C22.5 1.80964 21.9404 1.25 21.25 1.25H8.75Z" fill="#FAFAFA"/>
<path fill-rule="evenodd" clip-rule="evenodd" d="M8.75 5.9375C7.1967 5.9375 5.9375 7.1967 5.9375 8.75V22.5C5.9375 24.0533 7.1967 25.3125 8.75 25.3125H21.25C22.8033 25.3125 24.0625 24.0533 24.0625 22.5V8.75C24.0625 7.1967 22.8033 5.9375 21.25 5.9375V4.0625C23.8388 4.0625 25.9375 6.16117 25.9375 8.75V22.5C25.9375 25.0888 23.8388 27.1875 21.25 27.1875H8.75C6.16117 27.1875 4.0625 25.0888 4.0625 22.5V8.75C4.0625 6.16116 6.16117 4.0625 8.75 4.0625V5.9375Z" fill="#FAFAFA"/>
</svg>
