<svg width="42" height="26" viewBox="0 0 42 26" fill="none" xmlns="http://www.w3.org/2000/svg">
<rect x="0.5" y="0.5" width="41" height="25" rx="11.5" fill="#FFE3E3" stroke="#EA3131"/>
<path fill-rule="evenodd" clip-rule="evenodd" d="M15.4996 7.9668L26.4996 7.9668C26.7942 7.9668 27.033 8.20558 27.033 8.50013C27.033 8.79468 26.7942 9.03346 26.4996 9.03346L15.4996 9.03347C15.2051 9.03347 14.9663 8.79469 14.9663 8.50013C14.9663 8.20558 15.2051 7.9668 15.4996 7.9668Z" fill="#EA3131"/>
<path fill-rule="evenodd" clip-rule="evenodd" d="M19.5001 10.9668C19.7947 10.9668 20.0335 11.2056 20.0335 11.5001V15.5001C20.0335 15.7947 19.7947 16.0335 19.5001 16.0335C19.2056 16.0335 18.9668 15.7947 18.9668 15.5001V11.5001C18.9668 11.2056 19.2056 10.9668 19.5001 10.9668Z" fill="#EA3131"/>
<path fill-rule="evenodd" clip-rule="evenodd" d="M22.5001 10.9668C22.7947 10.9668 23.0335 11.2056 23.0335 11.5001V15.5001C23.0335 15.7947 22.7947 16.0335 22.5001 16.0335C22.2056 16.0335 21.9668 15.7947 21.9668 15.5001V11.5001C21.9668 11.2056 22.2056 10.9668 22.5001 10.9668Z" fill="#EA3131"/>
<path fill-rule="evenodd" clip-rule="evenodd" d="M17.9668 6.50013C17.9668 6.20558 18.2056 5.9668 18.5001 5.9668H23.5001C23.7947 5.9668 24.0335 6.20558 24.0335 6.50013C24.0335 6.79468 23.7947 7.03346 23.5001 7.03346H18.5001C18.2056 7.03346 17.9668 6.79468 17.9668 6.50013Z" fill="#EA3131"/>
<path fill-rule="evenodd" clip-rule="evenodd" d="M16.4999 8.03369C16.7576 8.03369 16.9665 8.24263 16.9665 8.50036V18.0004C16.9665 18.0092 16.97 18.0177 16.9763 18.0239C16.9826 18.0302 16.991 18.0337 16.9999 18.0337H24.9999C25.0087 18.0337 25.0172 18.0302 25.0234 18.0239C25.0297 18.0177 25.0332 18.0092 25.0332 18.0004V8.50036C25.0332 8.24263 25.2421 8.03369 25.4999 8.03369C25.7576 8.03369 25.9665 8.24263 25.9665 8.50036V18.0004C25.9665 18.2567 25.8647 18.5026 25.6834 18.6839C25.5021 18.8652 25.2562 18.967 24.9999 18.967H16.9999C16.7435 18.967 16.4976 18.8652 16.3163 18.6839C16.135 18.5026 16.0332 18.2567 16.0332 18.0004V8.50036C16.0332 8.24263 16.2421 8.03369 16.4999 8.03369Z" fill="#EA3131"/>
</svg>
