<svg width="28" height="28" viewBox="0 0 28 28" fill="none" xmlns="http://www.w3.org/2000/svg">
<path d="M14 27.325C13.4992 27.3227 13.0051 27.2094 12.5534 26.9933C12.1017 26.7771 11.7035 26.4635 11.3875 26.075L10.2875 24.825C10.1298 24.641 9.93122 24.4965 9.70762 24.4032C9.48402 24.3099 9.24166 24.2702 8.99997 24.2875L7.31247 24.4375C6.81578 24.4794 6.31592 24.4128 5.84754 24.2423C5.37916 24.0718 4.95347 23.8014 4.59997 23.45C4.24971 23.0952 3.97929 22.6696 3.80683 22.2018C3.63437 21.734 3.56384 21.2348 3.59997 20.7375L3.73747 19C3.74459 18.7638 3.69891 18.5291 3.60376 18.3128C3.50861 18.0966 3.36639 17.9043 3.18747 17.75L1.93747 16.6625C1.55607 16.341 1.24949 15.9401 1.03918 15.4877C0.828873 15.0354 0.71991 14.5426 0.71991 14.0438C0.71991 13.5449 0.828873 13.0521 1.03918 12.5998C1.24949 12.1474 1.55607 11.7465 1.93747 11.425L3.18747 10.325C3.3746 10.1623 3.51994 9.95698 3.6113 9.72642C3.70265 9.49586 3.73735 9.24675 3.71247 9L3.56247 7.3125C3.51409 6.80801 3.57785 6.29907 3.74919 5.82211C3.92054 5.34515 4.19523 4.91198 4.55359 4.55362C4.91195 4.19525 5.34512 3.92056 5.82208 3.74922C6.29904 3.57787 6.80799 3.51411 7.31247 3.5625L8.99997 3.7375C9.23612 3.74462 9.47089 3.69893 9.68714 3.60378C9.90339 3.50863 10.0957 3.36641 10.25 3.1875L11.3375 1.9375C11.654 1.54965 12.0524 1.23651 12.504 1.02042C12.9556 0.804343 13.4493 0.690661 13.95 0.6875C14.4508 0.689792 14.9448 0.803088 15.3965 1.01923C15.8483 1.23538 16.2465 1.54899 16.5625 1.9375L17.6625 3.1875C17.8278 3.37482 18.0353 3.52012 18.2679 3.61141C18.5004 3.70269 18.7514 3.73735 19 3.7125L20.6875 3.5625C21.192 3.51411 21.7009 3.57787 22.1779 3.74922C22.6548 3.92056 23.088 4.19525 23.4464 4.55362C23.8047 4.91198 24.0794 5.34515 24.2508 5.82211C24.4221 6.29907 24.4859 6.80801 24.4375 7.3125L24.2625 9C24.2554 9.23615 24.301 9.47091 24.3962 9.68717C24.4913 9.90342 24.6336 10.0957 24.8125 10.25L26.0625 11.3375C26.4439 11.659 26.7505 12.0599 26.9608 12.5123C27.1711 12.9646 27.28 13.4574 27.28 13.9563C27.28 14.4551 27.1711 14.9479 26.9608 15.4002C26.7505 15.8526 26.4439 16.2535 26.0625 16.575L24.8125 17.675C24.6253 17.8377 24.48 18.043 24.3887 18.2736C24.2973 18.5041 24.2626 18.7533 24.2875 19L24.4375 20.6875C24.4859 21.192 24.4221 21.7009 24.2508 22.1779C24.0794 22.6549 23.8047 23.088 23.4464 23.4464C23.088 23.8047 22.6548 24.0794 22.1779 24.2508C21.7009 24.4221 21.192 24.4859 20.6875 24.4375L19 24.2625C18.7644 24.2596 18.531 24.3072 18.3154 24.4021C18.0998 24.497 17.907 24.6369 17.75 24.8125L16.6625 26.0625C16.3459 26.4503 15.9476 26.7635 15.496 26.9796C15.0444 27.1957 14.5506 27.3093 14.05 27.3125L14 27.325ZM9.12497 22.4125C9.62516 22.4182 10.1181 22.533 10.5693 22.7489C11.0205 22.9648 11.4192 23.2766 11.7375 23.6625L12.8375 24.9125C12.9833 25.0852 13.1652 25.224 13.3703 25.319C13.5755 25.414 13.7989 25.463 14.025 25.4625C14.263 25.4748 14.5006 25.4302 14.718 25.3324C14.9354 25.2346 15.1263 25.0863 15.275 24.9L16.3625 23.65C16.7094 23.2234 17.1543 22.887 17.6592 22.6694C18.1641 22.4517 18.7141 22.3593 19.2625 22.4L20.95 22.525C21.1759 22.5443 21.4033 22.5137 21.6161 22.4355C21.8289 22.3574 22.022 22.2334 22.1817 22.0725C22.3414 21.9116 22.4639 21.7176 22.5405 21.5042C22.6171 21.2908 22.6459 21.0633 22.625 20.8375L22.4875 19.1625C22.4468 18.6142 22.5392 18.0641 22.7568 17.5592C22.9745 17.0543 23.3109 16.6094 23.7375 16.2625L24.9875 15.1625C25.1602 15.0167 25.2989 14.8348 25.3939 14.6296C25.489 14.4245 25.5379 14.2011 25.5375 13.975C25.5498 13.7369 25.5052 13.4994 25.4074 13.282C25.3095 13.0646 25.1613 12.8737 24.975 12.725L23.725 11.6375C23.3 11.2892 22.9647 10.8441 22.7473 10.3395C22.5298 9.83496 22.4364 9.2856 22.475 8.7375L22.6 7.05C22.6192 6.8241 22.5887 6.59672 22.5105 6.38391C22.4323 6.17109 22.3084 5.97802 22.1475 5.8183C21.9866 5.65858 21.7926 5.53611 21.5792 5.45951C21.3658 5.38292 21.1382 5.35407 20.9125 5.375L19.2375 5.5125C18.6891 5.55319 18.1391 5.46078 17.6342 5.24314C17.1293 5.0255 16.6844 4.68907 16.3375 4.2625L15.2375 3.0125C15.078 2.849 14.8844 2.72276 14.6705 2.64281C14.4565 2.56285 14.2276 2.53116 14 2.55C13.7619 2.53769 13.5243 2.58229 13.307 2.68012C13.0896 2.77794 12.8986 2.92616 12.75 3.1125L11.6625 4.3625C11.3122 4.78509 10.8667 5.11868 10.3627 5.33595C9.8586 5.55322 9.31023 5.64799 8.76247 5.6125L7.07497 5.4875C6.84623 5.46427 6.61519 5.49264 6.39886 5.57052C6.18253 5.6484 5.98642 5.7738 5.82497 5.9375C5.66272 6.09999 5.53828 6.29624 5.46051 6.51229C5.38273 6.72834 5.35352 6.95888 5.37497 7.1875L5.51247 8.8625C5.55316 9.41083 5.46075 9.96087 5.24311 10.4658C5.02547 10.9707 4.68904 11.4156 4.26247 11.7625L3.01247 12.8625C2.83975 13.0084 2.70101 13.1902 2.606 13.3954C2.51099 13.6005 2.462 13.8239 2.46247 14.05C2.45016 14.2881 2.49477 14.5256 2.59259 14.743C2.69041 14.9604 2.83864 15.1513 3.02497 15.3L4.27497 16.3875C4.69993 16.7358 5.03521 17.1809 5.2527 17.6855C5.47019 18.19 5.56355 18.7394 5.52497 19.2875L5.39997 20.975C5.37764 21.2037 5.40643 21.4345 5.48426 21.6507C5.56209 21.8668 5.68701 22.063 5.84997 22.225C6.01089 22.3894 6.20692 22.5153 6.4234 22.5933C6.63987 22.6712 6.87117 22.6991 7.09997 22.675L8.77497 22.5375L9.12497 22.4125Z" fill="#FAFAFA"/>
<path d="M14 18.6875C12.7568 18.6875 11.5645 18.1936 10.6854 17.3146C9.80636 16.4355 9.3125 15.2432 9.3125 14C9.3125 12.7568 9.80636 11.5645 10.6854 10.6854C11.5645 9.80636 12.7568 9.3125 14 9.3125C15.2432 9.3125 16.4355 9.80636 17.3146 10.6854C18.1936 11.5645 18.6875 12.7568 18.6875 14C18.6875 15.2432 18.1936 16.4355 17.3146 17.3146C16.4355 18.1936 15.2432 18.6875 14 18.6875ZM14 11.1875C13.2541 11.1875 12.5387 11.4838 12.0113 12.0113C11.4838 12.5387 11.1875 13.2541 11.1875 14C11.1875 14.7459 11.4838 15.4613 12.0113 15.9887C12.5387 16.5162 13.2541 16.8125 14 16.8125C14.7459 16.8125 15.4613 16.5162 15.9887 15.9887C16.5162 15.4613 16.8125 14.7459 16.8125 14C16.8125 13.2541 16.5162 12.5387 15.9887 12.0113C15.4613 11.4838 14.7459 11.1875 14 11.1875Z" fill="#FAFAFA"/>
</svg>
