<svg width="20" height="20" viewBox="0 0 20 20" fill="none" xmlns="http://www.w3.org/2000/svg">
<path d="M9.99998 11.7205L10.0002 11.7205C11.4078 11.7181 12.757 11.1578 13.7523 10.1626C14.7476 9.16727 15.3078 7.81807 15.3102 6.41052V6.41026C15.3102 5.35999 14.9988 4.33331 14.4153 3.46004C13.8318 2.58677 13.0025 1.90614 12.0321 1.50422C11.0618 1.1023 9.99409 0.99714 8.964 1.20204C7.93391 1.40693 6.98772 1.91269 6.24506 2.65534C5.50241 3.39799 4.99666 4.34419 4.79176 5.37428C4.58686 6.40437 4.69202 7.47208 5.09394 8.44241C5.49586 9.41273 6.17649 10.2421 7.04976 10.8256C7.92303 11.4091 8.94971 11.7205 9.99998 11.7205ZM7.96431 3.36367C8.56682 2.96109 9.27516 2.7462 9.99978 2.74616C10.9709 2.74847 11.9016 3.13528 12.5883 3.82196C13.275 4.50869 13.6618 5.43944 13.6641 6.41061C13.664 7.13518 13.4491 7.84346 13.0466 8.44592C12.644 9.04848 12.0717 9.51812 11.4022 9.79545C10.7326 10.0728 9.99592 10.1453 9.28515 10.004C8.57438 9.86258 7.9215 9.51361 7.40907 9.00117C6.89663 8.48874 6.54766 7.83586 6.40628 7.12509C6.2649 6.41432 6.33746 5.67759 6.61479 5.00807C6.89212 4.33854 7.36176 3.76629 7.96431 3.36367Z" fill="#D06C96" stroke="#D06C96" stroke-width="0.3"/>
<path d="M18.075 18.9V18.9L18.0789 18.9C18.2958 18.8972 18.503 18.8097 18.6564 18.6564C18.8097 18.503 18.8972 18.2958 18.9 18.0789L18.9 18.0768C18.8976 15.9551 18.0537 13.9211 16.5535 12.4209C15.0533 10.9207 13.0192 10.0768 10.8976 10.0744H10.8974L9.10256 10.0744L9.10239 10.0744C6.98077 10.0768 4.94674 10.9207 3.44652 12.4209C1.9463 13.9211 1.10242 15.9551 1.1 18.0768V18.0769C1.1 18.2952 1.18672 18.5046 1.34107 18.6589C1.49543 18.8133 1.70478 18.9 1.92308 18.9C2.14137 18.9 2.35072 18.8133 2.50508 18.6589C2.65939 18.5046 2.7461 18.2954 2.74615 18.0771C2.74847 16.392 3.41893 14.7765 4.61053 13.5849C5.8021 12.3933 7.41755 11.7229 9.10268 11.7205C9.10271 11.7205 9.10274 11.7205 9.10277 11.7205H10.8972C10.8973 11.7205 10.8973 11.7205 10.8973 11.7205C12.5825 11.7229 14.1979 12.3933 15.3895 13.5849C16.5811 14.7765 17.2515 16.392 17.2538 18.0771L17.2539 18.0789C17.2567 18.2958 17.3441 18.503 17.4975 18.6564C17.6509 18.8097 17.8581 18.8972 18.075 18.9Z" fill="#D06C96" stroke="#D06C96" stroke-width="0.3"/>
</svg>
