<svg width="50" height="50" viewBox="0 0 50 50" fill="none" xmlns="http://www.w3.org/2000/svg">
<circle cx="25" cy="25" r="24.2" stroke="#D06C96" stroke-width="1.6"/>
<path fill-rule="evenodd" clip-rule="evenodd" d="M16.8 19.3002V27.8188L20.1539 24.4648C20.2979 24.3209 20.4687 24.2067 20.6568 24.1289C20.8448 24.051 21.0464 24.0109 21.2499 24.0109C21.4535 24.0109 21.655 24.051 21.8431 24.1289C22.0312 24.2067 22.202 24.3209 22.346 24.4648L26.4999 28.6188L28.4039 26.7148C28.5479 26.5709 28.7187 26.4567 28.9068 26.3789C29.0948 26.301 29.2964 26.2609 29.4999 26.2609C29.7035 26.2609 29.905 26.301 30.0931 26.3789C30.2812 26.4567 30.452 26.5709 30.596 26.7148L33.2 29.3189V19.3002H16.8ZM21.2499 25.6316L16.8 30.0816V32.7002H33.2V31.5816L29.4999 27.8816L27.596 29.7856C27.452 29.9295 27.2812 30.0437 27.0931 30.1216C26.905 30.1995 26.7035 30.2395 26.4999 30.2395C26.2964 30.2395 26.0948 30.1995 25.9068 30.1216C25.7187 30.0437 25.5479 29.9295 25.4039 29.7856L21.2499 25.6316ZM15.2 19.2502V29.7502V32.7502C15.2 33.6062 15.8939 34.3002 16.75 34.3002H33.25C34.106 34.3002 34.7999 33.6062 34.7999 32.7502V19.2502C34.7999 18.3942 34.106 17.7002 33.25 17.7002H16.75C15.8939 17.7002 15.2 18.3942 15.2 19.2502ZM28.75 23.3752C28.75 23.9966 28.2463 24.5002 27.625 24.5002C27.0036 24.5002 26.5 23.9966 26.5 23.3752C26.5 22.7539 27.0036 22.2502 27.625 22.2502C28.2463 22.2502 28.75 22.7539 28.75 23.3752Z" fill="#D06C96"/>
</svg>
