<svg width="24" height="24" viewBox="0 0 24 24" fill="none" xmlns="http://www.w3.org/2000/svg">
<path d="M16.5 5.25H21" stroke="#FCFCFC" stroke-width="1.6" stroke-linecap="round" stroke-linejoin="round"/>
<path d="M18.75 3V7.5" stroke="#FCFCFC" stroke-width="1.6" stroke-linecap="round" stroke-linejoin="round"/>
<path d="M2.90527 20.2491C3.82736 18.6531 5.15322 17.3278 6.74966 16.4064C8.34611 15.485 10.1569 15 12.0002 15C13.8434 15 15.6542 15.4851 17.2506 16.4065C18.8471 17.3279 20.1729 18.6533 21.0949 20.2493" stroke="#FCFCFC" stroke-width="1.6" stroke-linecap="round" stroke-linejoin="round"/>
<path d="M17.6297 11.0796C17.2286 12.1625 16.5234 13.1066 15.5988 13.7984C14.6742 14.4902 13.5696 14.9004 12.4175 14.9796C11.2655 15.0588 10.1151 14.8037 9.10446 14.245C8.09388 13.6862 7.26611 12.8476 6.7206 11.8298C6.17509 10.812 5.93504 9.65831 6.02929 8.5074C6.12354 7.35648 6.54808 6.25726 7.25191 5.34177C7.95575 4.42629 8.90893 3.73348 9.99696 3.34659C11.085 2.9597 12.2616 2.89518 13.3854 3.16077" stroke="#FCFCFC" stroke-width="1.6" stroke-linecap="round" stroke-linejoin="round"/>
</svg>
