<svg width="16" height="16" viewBox="0 0 16 16" fill="none" xmlns="http://www.w3.org/2000/svg">
<path d="M8.00003 9.40641L8.00029 9.40641C9.13427 9.40445 10.2212 8.9531 11.0231 8.15126C11.8249 7.34941 12.2763 6.26244 12.2782 5.12847V5.12821C12.2782 4.28206 12.0273 3.45491 11.5572 2.75136C11.0871 2.04782 10.419 1.49947 9.63723 1.17566C8.85549 0.851854 7.99529 0.767131 7.1654 0.932206C6.33551 1.09728 5.5732 1.50474 4.97489 2.10306C4.37657 2.70138 3.96911 3.46368 3.80403 4.29357C3.63896 5.12346 3.72368 5.98367 4.04749 6.76541C4.37129 7.54714 4.91964 8.21531 5.62319 8.68541C6.32674 9.1555 7.15388 9.40641 8.00003 9.40641ZM6.38817 2.71588C6.86523 2.39712 7.42608 2.22696 7.99983 2.22693C8.76879 2.22877 9.50572 2.53505 10.0495 3.07879C10.5932 3.62251 10.8995 4.35942 10.9013 5.12836C10.9013 5.70212 10.7311 6.263 10.4124 6.74007C10.0936 7.21719 9.64045 7.58905 9.11031 7.80864C8.58017 8.02823 7.99681 8.08569 7.43402 7.97374C6.87123 7.8618 6.35427 7.58548 5.94852 7.17972C5.54277 6.77397 5.26645 6.25701 5.1545 5.69422C5.04255 5.13143 5.10001 4.54807 5.3196 4.01793C5.53919 3.48779 5.91105 3.03468 6.38817 2.71588Z" fill="black" stroke="black" stroke-width="0.3"/>
<path d="M14.4596 15.1499L14.4596 15.15L14.4635 15.1499C14.6448 15.1476 14.8181 15.0745 14.9463 14.9463C15.0745 14.818 15.1476 14.6448 15.15 14.4635L15.15 14.4613C15.1481 12.7561 14.4698 11.1212 13.264 9.91545C12.0582 8.70966 10.4234 8.03139 8.71812 8.02944H8.71795L7.28205 8.02944L7.28188 8.02944C5.57664 8.03139 3.94179 8.70966 2.736 9.91545C1.53021 11.1212 0.851946 12.7561 0.85 14.4613V14.4615C0.85 14.6441 0.922534 14.8192 1.05165 14.9483C1.18076 15.0774 1.35587 15.15 1.53846 15.15C1.72105 15.15 1.89617 15.0774 2.02528 14.9483C2.15434 14.8192 2.22687 14.6442 2.22692 14.4617C2.22877 13.1215 2.76197 11.8367 3.70963 10.8891C4.65727 9.94144 5.94201 9.40823 7.28217 9.40637C7.2822 9.40637 7.28223 9.40637 7.28226 9.40637H8.71774C8.71777 9.40637 8.7178 9.40637 8.71783 9.40637C10.058 9.40823 11.3427 9.94144 12.2904 10.8891C13.238 11.8367 13.7712 13.1215 13.7731 14.4617L13.7731 14.4635C13.7755 14.6448 13.8485 14.818 13.9768 14.9463C14.105 15.0745 14.2782 15.1476 14.4596 15.1499ZM14.4615 15C14.3193 14.9981 14.1834 14.9408 14.0828 14.8402C13.9823 14.7396 13.9249 14.6037 13.9231 14.4615L14.4615 15Z" fill="black" stroke="black" stroke-width="0.3"/>
</svg>
