<svg xmlns="http://www.w3.org/2000/svg" width="36" height="34.5" viewBox="0 0 36 34.5">
  <path id="Path_403" data-name="Path 403" d="M7.4,75.791a.6.6,0,0,1-.4-.1l-.1-.1a1,1,0,0,1-.5-1.1l3.9-11.8L.4,55.5a.669.669,0,0,1-.4-.7v-.2a.9.9,0,0,1,.9-.9H13.2L17,41.9a.875.875,0,0,1,.9-.6H18a1.013,1.013,0,0,1,.9.6l3.9,11.8H35.1a.9.9,0,0,1,.9.9v.2a.669.669,0,0,1-.4.7l-9.9,7.2,3.9,11.8a1,1,0,0,1-.5,1.1l-.1.1a.92.92,0,0,1-1-.1l-10-7.3-10.1,7.3C7.8,75.791,7.6,75.791,7.4,75.791Z" transform="translate(0 -41.3)" fill="#e99834"/>
</svg>
