<svg width="138" height="46" viewBox="0 0 138 46" fill="none" xmlns="http://www.w3.org/2000/svg">
<path fill-rule="evenodd" clip-rule="evenodd" d="M12.3553 7.79337C16.6595 3.48921 23.6379 3.48921 27.942 7.79336C32.2462 12.0975 32.2462 19.0759 27.942 23.3801L17.4875 33.8346C16.4377 34.8844 14.7357 34.8844 13.6859 33.8346C12.6361 32.7848 12.6361 31.0828 13.6859 30.033L24.1404 19.5785C26.345 17.3739 26.345 13.7996 24.1404 11.595C21.9358 9.39044 18.3615 9.39044 16.157 11.595L5.70244 22.0495C4.65265 23.0993 2.9506 23.0993 1.9008 22.0495C0.851009 20.9997 0.851009 19.2977 1.9008 18.2479L12.3553 7.79337Z" fill="#E0EAFF"/>
<path fill-rule="evenodd" clip-rule="evenodd" d="M25.2809 38.2066C20.9768 42.5108 13.9983 42.5108 9.69418 38.2066C5.39003 33.9025 5.39003 26.9241 9.69418 22.6199L20.1487 12.1654C21.1985 11.1156 22.9005 11.1156 23.9503 12.1654C25.0001 13.2152 25.0001 14.9172 23.9503 15.967L13.4958 26.4215C11.2913 28.6261 11.2913 32.2004 13.4958 34.405C15.7004 36.6096 19.2747 36.6096 21.4793 34.405L31.9338 23.9505C32.9836 22.9007 34.6856 22.9007 35.7354 23.9505C36.7852 25.0003 36.7852 26.7023 35.7354 27.7521L25.2809 38.2066Z" fill="#F6F6FA"/>
<path fill-rule="evenodd" clip-rule="evenodd" d="M20.3491 28.3324L7.98351 15.9668L11.7852 12.1652L24.1507 24.5307L20.3491 28.3324Z" fill="#E0EAFF"/>
<path fill-rule="evenodd" clip-rule="evenodd" d="M15.5731 23.8255L11.8097 20.062L15.6113 16.2604L19.3748 20.0238L15.5731 23.8255Z" fill="#FAFAFA"/>
<path d="M63.3 30L63.38 19.98H63.32L59.64 30H57.24L53.66 19.98H53.6L53.68 30H50.46V15.84H55.32L58.54 24.92H58.62L61.7 15.84H66.64V30H63.3ZM74.2616 25.66H73.8416C73.4816 25.66 73.1149 25.68 72.7416 25.72C72.3816 25.7467 72.0549 25.8067 71.7616 25.9C71.4816 25.9933 71.2482 26.1333 71.0616 26.32C70.8749 26.4933 70.7816 26.7267 70.7816 27.02C70.7816 27.2067 70.8216 27.3667 70.9016 27.5C70.9949 27.6333 71.1082 27.74 71.2416 27.82C71.3749 27.9 71.5282 27.96 71.7016 28C71.8749 28.0267 72.0416 28.04 72.2016 28.04C72.8682 28.04 73.3749 27.86 73.7216 27.5C74.0816 27.1267 74.2616 26.6267 74.2616 26V25.66ZM68.2416 21.4C68.8282 20.84 69.5082 20.42 70.2816 20.14C71.0682 19.86 71.8682 19.72 72.6816 19.72C73.5216 19.72 74.2282 19.8267 74.8016 20.04C75.3882 20.24 75.8616 20.56 76.2216 21C76.5816 21.4267 76.8416 21.9733 77.0016 22.64C77.1749 23.2933 77.2616 24.0733 77.2616 24.98V30H74.2616V28.94H74.2016C73.9482 29.3533 73.5616 29.6733 73.0416 29.9C72.5349 30.1267 71.9816 30.24 71.3816 30.24C70.9816 30.24 70.5682 30.1867 70.1416 30.08C69.7149 29.9733 69.3216 29.8 68.9616 29.56C68.6149 29.32 68.3282 29 68.1016 28.6C67.8749 28.2 67.7616 27.7067 67.7616 27.12C67.7616 26.4 67.9549 25.82 68.3416 25.38C68.7416 24.94 69.2482 24.6 69.8616 24.36C70.4882 24.12 71.1816 23.96 71.9416 23.88C72.7016 23.8 73.4416 23.76 74.1616 23.76V23.6C74.1616 23.1067 73.9882 22.7467 73.6416 22.52C73.2949 22.28 72.8682 22.16 72.3616 22.16C71.8949 22.16 71.4416 22.26 71.0016 22.46C70.5749 22.66 70.2082 22.9 69.9016 23.18L68.2416 21.4ZM82.0744 22.5V26.3C82.0744 26.7667 82.161 27.12 82.3344 27.36C82.521 27.5867 82.8477 27.7 83.3144 27.7C83.4744 27.7 83.641 27.6867 83.8144 27.66C84.001 27.6333 84.1544 27.5933 84.2744 27.54L84.3144 29.94C84.0877 30.02 83.801 30.0867 83.4544 30.14C83.1077 30.2067 82.761 30.24 82.4144 30.24C81.7477 30.24 81.1877 30.16 80.7344 30C80.281 29.8267 79.9144 29.5867 79.6344 29.28C79.3677 28.96 79.1744 28.5867 79.0544 28.16C78.9344 27.72 78.8744 27.2333 78.8744 26.7V22.5H77.2744V20.04H78.8544V17.42H82.0744V20.04H84.4144V22.5H82.0744ZM90.8158 22.98C90.5491 22.7267 90.2358 22.5133 89.8758 22.34C89.5158 22.1667 89.1358 22.08 88.7358 22.08C88.4291 22.08 88.1424 22.14 87.8758 22.26C87.6224 22.38 87.4958 22.5867 87.4958 22.88C87.4958 23.16 87.6358 23.36 87.9158 23.48C88.2091 23.6 88.6758 23.7333 89.3158 23.88C89.6891 23.96 90.0624 24.0733 90.4358 24.22C90.8224 24.3667 91.1691 24.56 91.4758 24.8C91.7824 25.04 92.0291 25.3333 92.2158 25.68C92.4024 26.0267 92.4958 26.44 92.4958 26.92C92.4958 27.5467 92.3691 28.08 92.1158 28.52C91.8624 28.9467 91.5291 29.2933 91.1158 29.56C90.7158 29.8267 90.2624 30.02 89.7558 30.14C89.2491 30.26 88.7424 30.32 88.2358 30.32C87.4224 30.32 86.6224 30.1933 85.8358 29.94C85.0624 29.6733 84.4158 29.2867 83.8958 28.78L85.7358 26.84C86.0291 27.16 86.3891 27.4267 86.8158 27.64C87.2424 27.8533 87.6958 27.96 88.1758 27.96C88.4424 27.96 88.7024 27.9 88.9558 27.78C89.2224 27.6467 89.3558 27.42 89.3558 27.1C89.3558 26.7933 89.1958 26.5667 88.8758 26.42C88.5558 26.2733 88.0558 26.12 87.3758 25.96C87.0291 25.88 86.6824 25.7733 86.3358 25.64C85.9891 25.5067 85.6758 25.3267 85.3958 25.1C85.1291 24.8733 84.9091 24.5933 84.7358 24.26C84.5624 23.9267 84.4758 23.5267 84.4758 23.06C84.4758 22.46 84.6024 21.9533 84.8558 21.54C85.1091 21.1133 85.4358 20.7667 85.8358 20.5C86.2358 20.2333 86.6758 20.04 87.1558 19.92C87.6491 19.7867 88.1358 19.72 88.6158 19.72C89.3624 19.72 90.0891 19.84 90.7958 20.08C91.5158 20.3067 92.1224 20.6533 92.6158 21.12L90.8158 22.98ZM99.9494 30V28.62H99.9094C99.7894 28.8467 99.6294 29.06 99.4294 29.26C99.2427 29.46 99.016 29.6333 98.7494 29.78C98.496 29.9267 98.2094 30.0467 97.8894 30.14C97.5827 30.2333 97.256 30.28 96.9094 30.28C96.2427 30.28 95.676 30.16 95.2094 29.92C94.756 29.68 94.3827 29.3733 94.0894 29C93.8094 28.6133 93.6027 28.18 93.4694 27.7C93.3494 27.2067 93.2894 26.7067 93.2894 26.2V20.04H96.5894V25.44C96.5894 25.72 96.6094 25.9867 96.6494 26.24C96.6894 26.4933 96.7627 26.72 96.8694 26.92C96.9894 27.12 97.1427 27.28 97.3294 27.4C97.516 27.5067 97.7627 27.56 98.0694 27.56C98.6427 27.56 99.076 27.3467 99.3694 26.92C99.676 26.4933 99.8294 25.9933 99.8294 25.42V20.04H103.109V30H99.9494ZM111.535 23.88C111.535 23.36 111.368 22.9133 111.035 22.54C110.715 22.1667 110.228 21.98 109.575 21.98C109.255 21.98 108.961 22.0333 108.695 22.14C108.428 22.2333 108.195 22.3667 107.995 22.54C107.795 22.7133 107.635 22.92 107.515 23.16C107.395 23.3867 107.328 23.6267 107.315 23.88H111.535ZM114.555 25.14C114.555 25.2733 114.555 25.4067 114.555 25.54C114.555 25.6733 114.548 25.8 114.535 25.92H107.315C107.341 26.2 107.421 26.4533 107.555 26.68C107.701 26.9067 107.881 27.1067 108.095 27.28C108.321 27.44 108.568 27.5667 108.835 27.66C109.115 27.7533 109.401 27.8 109.695 27.8C110.215 27.8 110.655 27.7067 111.015 27.52C111.375 27.32 111.668 27.0667 111.895 26.76L114.175 28.2C113.708 28.88 113.088 29.4067 112.315 29.78C111.555 30.14 110.668 30.32 109.655 30.32C108.908 30.32 108.201 30.2067 107.535 29.98C106.868 29.74 106.281 29.4 105.775 28.96C105.281 28.5067 104.888 27.9533 104.595 27.3C104.315 26.6467 104.175 25.9 104.175 25.06C104.175 24.2467 104.315 23.5133 104.595 22.86C104.875 22.1933 105.255 21.6333 105.735 21.18C106.215 20.7133 106.781 20.3533 107.435 20.1C108.088 19.8467 108.795 19.72 109.555 19.72C110.288 19.72 110.961 19.8467 111.575 20.1C112.188 20.34 112.715 20.6933 113.155 21.16C113.595 21.6267 113.935 22.1933 114.175 22.86C114.428 23.5267 114.555 24.2867 114.555 25.14ZM126.289 30H122.229L118.969 25.22H118.909V30H115.609V14.88H118.909V24.08H118.969L122.149 20.04H126.129L122.289 24.54L126.289 30ZM132.809 30V28.62H132.769C132.649 28.8467 132.489 29.06 132.289 29.26C132.102 29.46 131.875 29.6333 131.609 29.78C131.355 29.9267 131.069 30.0467 130.749 30.14C130.442 30.2333 130.115 30.28 129.769 30.28C129.102 30.28 128.535 30.16 128.069 29.92C127.615 29.68 127.242 29.3733 126.949 29C126.669 28.6133 126.462 28.18 126.329 27.7C126.209 27.2067 126.149 26.7067 126.149 26.2V20.04H129.449V25.44C129.449 25.72 129.469 25.9867 129.509 26.24C129.549 26.4933 129.622 26.72 129.729 26.92C129.849 27.12 130.002 27.28 130.189 27.4C130.375 27.5067 130.622 27.56 130.929 27.56C131.502 27.56 131.935 27.3467 132.229 26.92C132.535 26.4933 132.689 25.9933 132.689 25.42V20.04H135.969V30H132.809Z" fill="#FAFAFA"/>
</svg>
